<?xml version="1.0" encoding="UTF-8"?>
<svg id="Layer_1" xmlns="http://www.w3.org/2000/svg" version="1.1" viewBox="0 0 597.54 330.84">
  <!-- Generator: Adobe Illustrator 30.6.0, SVG Export Plug-In . SVG Version: 2.1.4 Build 109)  -->
  <defs>
    <style>
      .st0 {
        fill: #0a0a0a;
      }

      .st1 {
        fill: #0e64b4;
      }
    </style>
  </defs>
  <path class="st0" d="M434.52,317.42h-27.59l-5.71,12.98h-7.64l23.51-51.92h7.34l23.59,51.92h-7.79l-5.71-12.98ZM431.93,311.49l-11.2-25.44-11.2,25.44h22.4Z"/>
  <path class="st0" d="M490.6,291.09v39.31h-6.75v-5.93c-2.89,4.08-7.79,6.38-13.35,6.38-10.16,0-16.91-5.56-16.91-17.13v-22.62h7.12v21.81c0,7.71,3.86,11.57,10.61,11.57,7.42,0,12.16-4.6,12.16-13.05v-20.32h7.12Z"/>
  <path class="st0" d="M541.25,275.36v55.04h-6.82v-6.23c-3.19,4.45-8.23,6.68-14.02,6.68-11.5,0-19.88-8.08-19.88-20.1s8.38-20.03,19.88-20.03c5.56,0,10.46,2.08,13.72,6.3v-21.66h7.12ZM534.2,310.74c0-8.38-5.71-13.8-13.2-13.8s-13.28,5.42-13.28,13.8,5.71,13.87,13.28,13.87,13.2-5.49,13.2-13.87Z"/>
  <path class="st0" d="M553.49,278.92c0-2.6,2.08-4.67,4.82-4.67s4.82,2,4.82,4.53c0,2.67-2,4.75-4.82,4.75s-4.82-2-4.82-4.6ZM554.75,291.09h7.12v39.31h-7.12v-39.31Z"/>
  <path class="st0" d="M597.54,328.1c-2.15,1.85-5.42,2.75-8.6,2.75-7.94,0-12.46-4.38-12.46-12.31v-21.58h-6.68v-5.86h6.68v-8.6h7.12v8.6h11.27v5.86h-11.27v21.29c0,4.23,2.22,6.6,6.16,6.6,2.08,0,4.08-.67,5.56-1.85l2.23,5.12Z"/>
  <path class="st0" d="M597.54,160.56c0-38.77-23.32-70.27-67.85-70.27-40.29,0-71.49,31.81-71.49,74.52s31.2,74.52,73.3,74.52c23.32,0,44.22-8.78,60.88-29.99l-15.45-12.12c-7.88,12.72-24.23,24.54-45.44,24.54-29.08,0-51.19-23.02-51.8-51.49h117.53c.3-3.63.3-6.97.3-9.69ZM480.02,153.9c1.82-24.23,22.11-46.34,49.68-46.34,29.38,0,45.74,19.69,46.95,46.34h-96.63ZM418.89,36.86c0-8.6,7.37-14.74,14.74-14.74s14.74,6.14,14.74,14.74-7.37,14.74-14.74,14.74-14.74-6.14-14.74-14.74ZM423.19,235.9h20.89V92.15h-20.89v143.75ZM247.14,88.46c5.22,0,9.52.31,13.82,1.54l-2.76,19.66c-2.46-.92-9.21-1.84-14.74-1.84-22.12,0-42.08,15.97-42.08,54.37v73.72h-20.89v-112.11c0-7.68-.31-21.81-1.23-31.64h19.97c.61,7.68,1.23,18.43,1.23,24.57h.61c7.99-16.59,25.8-28.26,46.07-28.26ZM344.26,0c5.22,0,11.98.61,17.2,2.15l-3.69,18.43c-4.3-1.23-8.91-2.15-14.44-2.15-22.42,0-27.03,15.97-27.03,36.86v36.86h33.79v17.51h-33.79v126.24h-20.89v-126.24h-30.1v-17.51h30.1v-39.32c0-32.56,15.97-52.83,48.84-52.83ZM368.79,3.69h20.89v232.21h-20.89V3.69Z"/>
  <path class="st1" d="M76.48,88.46C31.94,88.46,0,120.71,0,164.02s31.94,75.56,76.48,75.56,76.79-32.25,76.79-75.56-31.94-75.56-76.79-75.56ZM76.48,221.77c-33.17,0-54.37-25.49-54.37-57.75s21.19-58.05,54.37-58.05,54.67,25.8,54.67,58.05-21.19,57.75-54.67,57.75Z"/>
</svg>